# xmcd
#
# Track frame offsets:
#	175
#	1950
#	13102
#	27942
#	46782
#	51652
#	67242
#	85325
#	89712
#	107372
#	127062
#	131012
#	148560
#	168940
#	186562
#
# Disc length: 2742 seconds
#
# Revision: 2
# Processed by: cddbd v1.5.2PL0 Copyright (c) Steve Scherf et al.
# Submitted via: audiograbber 1.83.01
#
DISCID=d80ab40f
DTITLE=No I.D. - Accept Your Own and Be Yourself (The Black Album)
DYEAR=1997
DGENRE=Hip Hop
TTITLE0=No I.D. - Heat
TTITLE1=No I.D., Dug Infinite - We Rock Like So
TTITLE2=No I.D., Dug Infinite, Syndicate - Fate Or Destiny
TTITLE3=No I.D., Dug Infinite, Common - State To State
TTITLE4=No I.D. - I'm Thinkin'
TTITLE5=No I.D., Dug Infinite, Sydicate - Mega Live (That's The Joint)
TTITLE6=No I.D. - Sky's The Limit (Inf Mix)
TTITLE7=No I.D. - Dreams
TTITLE8=No I.D., Dug Infinite - The Real Weight
TTITLE9=No I.D., Dug Infinite - Jump On It
TTITLE10=No I.D. - GEM
TTITLE11=No I.D., Dug Infinite - Original Man
TTITLE12=No I.D., Dug Infinite - Pray For The Sinners
TTITLE13=No I.D., Dug Infinite - Sky's The Limit
TTITLE14=No I.D., Dug Infinite, Syndicate - Two Steps Behind
EXTD=www.RapMusicGuide.com\n
EXTT0=
EXTT1=
EXTT2=
EXTT3=
EXTT4=
EXTT5=
EXTT6=
EXTT7=
EXTT8=
EXTT9=
EXTT10=
EXTT11=
EXTT12=
EXTT13=
EXTT14=
PLAYORDER=
